<?xml version="1.0" encoding="utf-8"?>
<!-- Generator: Adobe Illustrator 23.0.5, SVG Export Plug-In . SVG Version: 6.00 Build 0)  -->
<svg version="1.1" id="Layer_1" xmlns="http://www.w3.org/2000/svg" xmlns:xlink="http://www.w3.org/1999/xlink" x="0px" y="0px"
	 viewBox="0 0 189 186.84" style="enable-background:new 0 0 189 186.84;" xml:space="preserve">
<style type="text/css">
	.st0{fill:url(#SVGID_1_);stroke:#2D1144;stroke-miterlimit:10;}
	.st1{fill:#010101;stroke:#2D1144;stroke-miterlimit:10;}
	.st2{fill:#932A8E;stroke:#662D91;stroke-miterlimit:10;}
	.st3{fill:#010101;stroke:#662D91;stroke-miterlimit:10;}
	.st4{fill:#3A53A4;stroke:#2E3192;stroke-miterlimit:10;}
	.st5{fill:#010101;stroke:#2E3192;stroke-miterlimit:10;}
	.st6{fill:#6ABD45;stroke:#006838;stroke-miterlimit:10;}
	.st7{fill:#010101;stroke:#006838;stroke-miterlimit:10;}
	.st8{fill:#FAED24;stroke:#B1AB34;stroke-miterlimit:10;}
	.st9{fill:#010101;stroke:#B1AB34;stroke-miterlimit:10;}
	.st10{fill:#F15B27;stroke:#EF4136;stroke-miterlimit:10;}
	.st11{fill:#010101;stroke:#EF4136;stroke-miterlimit:10;}
	.st12{fill:#ED1C24;stroke:#9F1D20;stroke-miterlimit:10;}
</style>
<g id="Home">
	<g>
		
			<radialGradient id="SVGID_1_" cx="1874.6174" cy="1240.6185" r="74.5175" gradientTransform="matrix(0.1895 0 0 0.1822 -257.6878 -135.0862)" gradientUnits="userSpaceOnUse">
			<stop  offset="0" style="stop-color:#F27BAA;stop-opacity:0"/>
			<stop  offset="0.887" style="stop-color:#F27BAA;stop-opacity:0.887"/>
			<stop  offset="1" style="stop-color:#F27BAA"/>
		</radialGradient>
		<ellipse class="st0" cx="97.61" cy="90.93" rx="14.13" ry="13.57"/>
		<path class="st1" d="M97.61,77.47c7.71,0,14.02,6.05,14.02,13.46s-6.3,13.46-14.02,13.46s-14.02-6.05-14.02-13.46
			S89.9,77.47,97.61,77.47 M97.61,77.3c-7.82,0-14.24,6.11-14.24,13.68c0,7.58,6.36,13.68,14.24,13.68
			c7.82,0,14.24-6.11,14.24-13.68C111.85,83.41,105.49,77.3,97.61,77.3L97.61,77.3z"/>
	</g>
</g>
<g id="pages">
	<g id="p6_1_">
		<polygon class="st2" points="125.87,91.04 111.63,67.41 125.87,43.71 154.29,43.71 168.48,67.41 154.29,91.04 		"/>
		<path class="st3" d="M154.13,43.71l14.02,23.35l-14.02,23.35h-28.09l-14.02-23.35l14.02-23.35h28.31 M154.29,43.71h-28.43
			l-14.19,23.63l14.19,23.63h28.43l14.19-23.63L154.29,43.71L154.29,43.71z"/>
	</g>
	<g id="p5_1_">
		<polygon class="st4" points="125.87,138.37 111.63,114.67 125.87,91.04 154.29,91.04 168.48,114.67 154.29,138.37 		"/>
		<path class="st5" d="M154.13,91.04l14.02,23.35l-14.02,23.35h-28.09l-14.02-23.35l14.02-23.35h28.31 M154.29,91.04h-28.43
			l-14.19,23.63l14.19,23.63h28.43l14.19-23.63L154.29,91.04L154.29,91.04z"/>
	</g>
	<g id="p4_1_">
		<polygon class="st6" points="83.42,162 69.18,138.37 83.42,114.67 111.85,114.67 126.04,138.37 111.85,162 		"/>
		<path class="st7" d="M111.68,114.67l14.02,23.35l-14.02,23.41H83.59l-14.02-23.35l14.02-23.35h28.2 M111.85,114.67H83.42
			l-14.19,23.63l14.19,23.63h28.43l14.19-23.63L111.85,114.67L111.85,114.67z"/>
	</g>
	<g id="p3_1_">
		<polygon class="st8" points="40.93,138.37 26.74,114.67 40.93,91.04 69.35,91.04 83.59,114.67 69.35,138.37 		"/>
		<path class="st9" d="M69.18,91.04l14.02,23.35l-14.02,23.35H41.09l-14.02-23.35l14.02-23.35H69.18 M69.35,91.04H40.93
			l-14.19,23.63l14.19,23.63h28.43l14.19-23.63L69.35,91.04L69.35,91.04z"/>
	</g>
	<g id="p2_1_">
		<polygon class="st10" points="40.93,91.04 26.74,67.41 40.93,43.71 69.35,43.71 83.59,67.41 69.35,91.04 		"/>
		<path class="st11" d="M69.18,43.71L83.2,67.07L69.18,90.42H41.09L27.08,67.07l14.02-23.35H69.18 M69.35,43.71H40.93L26.74,67.35
			l14.19,23.63h28.43l14.19-23.63L69.35,43.71L69.35,43.71z"/>
	</g>
	<g id="p1_1_">
		<polygon class="st12" points="83.59,67.41 69.41,43.71 83.59,20.08 112.02,20.08 126.21,43.71 112.02,67.41 		"/>
		<path class="st12" d="M111.85,20.08l14.02,23.35l-14.02,23.35H83.76L69.75,43.43l14.02-23.35h28.03 M112.02,20.08H83.59
			L69.41,43.71l14.19,23.63h28.43l14.19-23.63L112.02,20.08L112.02,20.08z"/>
	</g>
</g>
</svg>
